<svg width="15" height="15" viewBox="0 0 15 15" fill="none" xmlns="http://www.w3.org/2000/svg">
<path d="M2.5 6.875H6.25C6.41576 6.875 6.57473 6.80915 6.69194 6.69194C6.80915 6.57473 6.875 6.41576 6.875 6.25V2.5C6.875 2.33424 6.80915 2.17527 6.69194 2.05806C6.57473 1.94085 6.41576 1.875 6.25 1.875H2.5C2.33424 1.875 2.17527 1.94085 2.05806 2.05806C1.94085 2.17527 1.875 2.33424 1.875 2.5V6.25C1.875 6.41576 1.94085 6.57473 2.05806 6.69194C2.17527 6.80915 2.33424 6.875 2.5 6.875ZM8.75 6.875H12.5C12.6658 6.875 12.8247 6.80915 12.9419 6.69194C13.0592 6.57473 13.125 6.41576 13.125 6.25V2.5C13.125 2.33424 13.0592 2.17527 12.9419 2.05806C12.8247 1.94085 12.6658 1.875 12.5 1.875H8.75C8.58424 1.875 8.42527 1.94085 8.30806 2.05806C8.19085 2.17527 8.125 2.33424 8.125 2.5V6.25C8.125 6.41576 8.19085 6.57473 8.30806 6.69194C8.42527 6.80915 8.58424 6.875 8.75 6.875ZM2.5 13.125H6.25C6.41576 13.125 6.57473 13.0592 6.69194 12.9419C6.80915 12.8247 6.875 12.6658 6.875 12.5V8.75C6.875 8.58424 6.80915 8.42527 6.69194 8.30806C6.57473 8.19085 6.41576 8.125 6.25 8.125H2.5C2.33424 8.125 2.17527 8.19085 2.05806 8.30806C1.94085 8.42527 1.875 8.58424 1.875 8.75V12.5C1.875 12.6658 1.94085 12.8247 2.05806 12.9419C2.17527 13.0592 2.33424 13.125 2.5 13.125ZM8.75 13.125H12.5C12.6658 13.125 12.8247 13.0592 12.9419 12.9419C13.0592 12.8247 13.125 12.6658 13.125 12.5V8.75C13.125 8.58424 13.0592 8.42527 12.9419 8.30806C12.8247 8.19085 12.6658 8.125 12.5 8.125H8.75C8.58424 8.125 8.42527 8.19085 8.30806 8.30806C8.19085 8.42527 8.125 8.58424 8.125 8.75V12.5C8.125 12.6658 8.19085 12.8247 8.30806 12.9419C8.42527 13.0592 8.58424 13.125 8.75 13.125Z" fill="#FFC700"/>
</svg>
